<?xml version="1.0" encoding="utf-8"?>
<!-- Generator: Adobe Illustrator 16.0.0, SVG Export Plug-In . SVG Version: 6.00 Build 0)  -->
<!DOCTYPE svg PUBLIC "-//W3C//DTD SVG 1.1//EN" "http://www.w3.org/Graphics/SVG/1.1/DTD/svg11.dtd">
<svg version="1.1" id="Layer_1" xmlns="http://www.w3.org/2000/svg" xmlns:xlink="http://www.w3.org/1999/xlink" x="0px" y="0px"
	 width="512px" height="512px" viewBox="0 0 512 512" enable-background="new 0 0 512 512" xml:space="preserve">
<g>
	<g transform="translate(0.000000,512.000000) scale(0.100000,-0.100000)" opacity="0.4">
		<path fill="#515151" d="M4318.212,4945.18c-168.506-40.669-312.793-167.534-374.785-330.234
			c-30.986-78.442-37.773-238.232-14.521-317.646c54.229-187.876,197.559-330.234,379.629-377.686
			c110.391-29.058,267.285-13.56,365.098,35.83c102.646,51.328,203.369,155.918,248.877,258.569
			c91.045,205.313,48.428,428.052-113.291,589.775C4676.533,4936.464,4496.406,4988.759,4318.212,4945.18z"/>
		<path fill="#515151" d="M2384.253,4694.36c-44.546-21.309-139.453-111.372-579.121-550.068
			c-289.565-288.599-538.447-543.291-553.945-566.533c-84.253-126.865-19.37-287.627,131.709-322.495
			c40.669-9.683,58.105-8.711,106.528,5.815c56.167,16.465,61.006,20.337,512.3,469.688
			c291.499,290.532,464.849,456.133,480.337,460.005c15.498,3.877,36.807,0.972,53.262-8.711
			c15.508-7.754,165.615-152.046,333.145-320.557c174.326-175.283,321.523-314.736,343.799-326.362
			c133.642-69.722,305.058,37.773,305.058,190.786c0,85.22,0.957,84.253-433.857,521.016
			c-227.588,228.55-432.891,426.108-456.143,439.668c-32.92,20.337-58.105,26.147-116.211,29.053
			C2447.197,4719.541,2430.732,4716.63,2384.253,4694.36z"/>
		<path fill="#515151" d="M3554.121,2891.132l-172.383-172.378V2551.21c0-169.472,4.844-196.582,37.773-221.767
			c20.332-15.488,1399.385-18.398,1441.025-1.943c59.072,22.285,108.467,96.846,109.434,162.705
			c0,50.352-35.83,114.277-80.381,144.297l-39.707,26.147l-527.793,4.844c-290.537,2.9-536.514,8.716-546.191,13.56
			c-33.896,16.46-40.684,46.484-45.518,216.924l-4.844,166.572L3554.121,2891.132z"/>
		<path fill="#515151" d="M2214.78,2521.191c-105.562-48.418-150.107-173.34-100.718-281.806
			c14.526-32.93,121.055-145.273,425.137-450.322c259.541-260.518,407.715-416.426,411.592-431.924
			c14.521-61.016,7.744-64.883-504.551-337.988c-530.708-282.783-553.95-297.305-575.254-385.43
			c-23.242-98.779,21.304-202.402,109.429-253.73c44.551-26.152,57.144-30.02,113.311-27.119
			c59.072,2.91,74.57,9.688,276.001,118.154c778.623,418.359,1075.927,583.965,1106.914,614.951
			c49.404,49.395,73.613,110.4,73.613,184.971c0,118.154,12.588,103.623-578.154,694.365
			c-408.682,408.682-545.234,539.424-578.159,553.945C2339.707,2544.433,2266.103,2544.433,2214.78,2521.191z"/>
		<path fill="#515151" d="M861.875,1157.636C274.038,568.838,94.878,384.834,80.352,350.937
			c-25.181-55.205-25.181-119.121-0.967-169.482c24.209-50.352,35.83-64.883,81.348-95.869
			c32.925-21.299,47.451-25.176,112.339-25.176c65.85,0,78.442,2.9,117.178,29.053c23.242,15.488,380.596,366.064,793.149,779.58
			l750.532,750.537l-150.107,150.107c-82.314,82.324-152.046,150.107-154.946,150.107
			C1625.971,1919.795,1281.211,1576.972,861.875,1157.636z"/>
	</g>
	<g transform="translate(0.000000,512.000000) scale(0.100000,-0.100000)">
		<path fill="#F9F9F9" d="M4318.212,5019.472c-168.506-40.669-312.793-167.534-374.785-330.234
			c-30.986-78.438-37.773-238.232-14.521-317.646c54.229-187.876,197.559-330.229,379.629-377.686
			c110.391-29.053,267.285-13.564,365.098,35.83c102.646,51.328,203.369,155.918,248.877,258.574
			c91.045,205.303,48.428,428.047-113.291,589.771C4676.533,5010.761,4496.406,5063.056,4318.212,5019.472z"/>
		<path fill="#F9F9F9" d="M2384.253,4768.652c-44.541-21.309-139.458-111.372-579.121-550.068
			c-289.565-288.594-538.452-543.296-553.945-566.533c-84.253-126.87-19.37-287.627,131.704-322.485
			c40.674-9.688,58.105-8.721,106.528,5.806c56.177,16.465,61.016,20.332,512.305,469.688
			c291.494,290.532,464.849,456.128,480.337,460.01c15.498,3.877,36.807,0.962,53.262-8.721
			c15.508-7.749,165.615-152.036,333.145-320.547c174.326-175.283,321.523-314.741,343.799-326.367
			c133.642-69.727,305.058,37.773,305.058,190.786c0,85.22,0.957,84.253-433.857,521.016
			c-227.588,228.56-432.891,426.108-456.143,439.673c-32.92,20.332-58.105,26.143-116.211,29.053
			C2447.197,4793.833,2430.732,4790.922,2384.253,4768.652z"/>
		<path fill="#F9F9F9" d="M3554.121,2965.424l-172.383-172.378v-167.539c0-169.482,4.844-196.582,37.773-221.767
			c20.332-15.488,1399.385-18.408,1441.025-1.953c59.072,22.295,108.467,96.855,109.434,162.719
			c0,50.352-35.83,114.263-80.381,144.287l-39.707,26.147l-527.793,4.844c-290.537,2.9-536.514,8.721-546.191,13.56
			c-33.896,16.455-40.684,46.484-45.518,216.924l-4.844,166.572L3554.121,2965.424z"/>
		<path fill="#F9F9F9" d="M2214.78,2595.488c-105.566-48.418-150.107-173.349-100.723-281.816
			c14.526-32.93,121.055-145.264,425.142-450.322c259.541-260.518,407.715-416.426,411.592-431.924
			c14.521-61.016,7.744-64.873-504.551-337.979c-530.713-282.783-553.95-297.305-575.254-385.43
			c-23.247-98.789,21.304-202.402,109.429-253.74c44.556-26.143,57.144-30.02,113.31-27.109c59.067,2.9,74.57,9.688,276.001,118.144
			c778.623,418.359,1075.927,583.975,1106.914,614.951c49.404,49.395,73.613,110.41,73.613,184.971
			c0,118.164,12.588,103.633-578.154,694.375c-408.682,408.681-545.234,539.424-578.159,553.95
			C2339.712,2618.735,2266.103,2618.735,2214.78,2595.488z"/>
		<path fill="#F9F9F9" d="M861.875,1231.933C274.033,643.125,94.873,459.121,80.347,425.224
			c-25.176-55.195-25.176-119.111-0.962-169.473c24.209-50.352,35.83-64.883,81.353-95.879
			c32.92-21.299,47.446-25.176,112.334-25.176c65.85,0,78.438,2.91,117.173,29.053c23.247,15.488,380.605,366.074,793.154,779.59
			l750.532,750.527l-150.107,150.107c-82.314,82.324-152.046,150.107-154.946,150.107
			C1625.972,1994.082,1281.206,1651.26,861.875,1231.933z"/>
	</g>
</g>
</svg>
